<?xml version="1.0" encoding="UTF-8" standalone="no"?>
<!-- Created with Inkscape (http://www.inkscape.org/) -->

<svg
   xmlns:dc="http://purl.org/dc/elements/1.1/"
   xmlns:cc="http://creativecommons.org/ns#"
   xmlns:rdf="http://www.w3.org/1999/02/22-rdf-syntax-ns#"
   xmlns:svg="http://www.w3.org/2000/svg"
   xmlns="http://www.w3.org/2000/svg"
   xmlns:sodipodi="http://sodipodi.sourceforge.net/DTD/sodipodi-0.dtd"
   xmlns:inkscape="http://www.inkscape.org/namespaces/inkscape"
   version="1.1"
   id="svg2"
   xml:space="preserve"
   width="1821.3333"
   height="1024"
   viewBox="0 0 1821.3333 1024"
   sodipodi:docname="28012022_ParticleViz_White.ai.svg"
   inkscape:version="0.92.5 (2060ec1f9f, 2020-04-08)"><metadata
     id="metadata8"><rdf:RDF><cc:Work
         rdf:about=""><dc:format>image/svg+xml</dc:format><dc:type
           rdf:resource="http://purl.org/dc/dcmitype/StillImage" /><dc:title></dc:title></cc:Work></rdf:RDF></metadata><defs
     id="defs6"><clipPath
       clipPathUnits="userSpaceOnUse"
       id="clipPath18"><path
         d="M 0,768 H 1366 V 0 H 0 Z"
         id="path16"
         inkscape:connector-curvature="0" /></clipPath><clipPath
       clipPathUnits="userSpaceOnUse"
       id="clipPath194"><path
         d="m 465.884,329.889 c 0,-4.694 3.804,-8.498 8.497,-8.498 v 0 c 4.693,0 8.498,3.804 8.498,8.498 v 0 c 0,4.692 -3.805,8.497 -8.498,8.497 v 0 c -4.693,0 -8.497,-3.805 -8.497,-8.497"
         id="path192"
         inkscape:connector-curvature="0" /></clipPath><linearGradient
       x1="0"
       y1="0"
       x2="1"
       y2="0"
       gradientUnits="userSpaceOnUse"
       gradientTransform="matrix(16.994747,0,0,-16.994747,465.884,329.8884)"
       spreadMethod="pad"
       id="linearGradient208"><stop
         style="stop-opacity:1;stop-color:#3399ff"
         offset="0"
         id="stop200" /><stop
         style="stop-opacity:1;stop-color:#5d31af"
         offset="0.343575"
         id="stop202" /><stop
         style="stop-opacity:1;stop-color:#1963b2"
         offset="0.72067"
         id="stop204" /><stop
         style="stop-opacity:1;stop-color:#1963b2"
         offset="1"
         id="stop206" /></linearGradient><clipPath
       clipPathUnits="userSpaceOnUse"
       id="clipPath218"><path
         d="m 523.518,296.637 c 0,-4.691 3.805,-8.497 8.497,-8.497 v 0 c 4.694,0 8.498,3.806 8.498,8.497 v 0 c 0,4.694 -3.804,8.498 -8.498,8.498 v 0 c -4.692,0 -8.497,-3.804 -8.497,-8.498"
         id="path216"
         inkscape:connector-curvature="0" /></clipPath><linearGradient
       x1="0"
       y1="0"
       x2="1"
       y2="0"
       gradientUnits="userSpaceOnUse"
       gradientTransform="matrix(16.994747,0,0,-16.994747,523.51837,296.63782)"
       spreadMethod="pad"
       id="linearGradient232"><stop
         style="stop-opacity:1;stop-color:#3399ff"
         offset="0"
         id="stop224" /><stop
         style="stop-opacity:1;stop-color:#5d31af"
         offset="0.343575"
         id="stop226" /><stop
         style="stop-opacity:1;stop-color:#1963b2"
         offset="0.72067"
         id="stop228" /><stop
         style="stop-opacity:1;stop-color:#1963b2"
         offset="1"
         id="stop230" /></linearGradient><clipPath
       clipPathUnits="userSpaceOnUse"
       id="clipPath242"><path
         d="M 0,768 H 1366 V 0 H 0 Z"
         id="path240"
         inkscape:connector-curvature="0" /></clipPath></defs><sodipodi:namedview
     pagecolor="#ffffff"
     bordercolor="#666666"
     borderopacity="1"
     objecttolerance="10"
     gridtolerance="10"
     guidetolerance="10"
     inkscape:pageopacity="0"
     inkscape:pageshadow="2"
     inkscape:window-width="2504"
     inkscape:window-height="1376"
     id="namedview4"
     showgrid="false"
     inkscape:zoom="0.8587116"
     inkscape:cx="607.88727"
     inkscape:cy="408.63781"
     inkscape:window-x="56"
     inkscape:window-y="27"
     inkscape:window-maximized="1"
     inkscape:current-layer="g10" /><g
     id="g10"
     inkscape:groupmode="layer"
     inkscape:label="28012022_ParticleViz"
     transform="matrix(1.3333333,0,0,-1.3333333,0,1024)"><g
       id="g12"><g
         id="g14"
         clip-path="url(#clipPath18)"><g
           id="g20"
           transform="translate(465.2759,332.042)"><path
             d="M 0,0 3.878,0.229 C 4.463,0.262 4.964,-0.184 5,-0.77 5.033,-1.354 4.586,-1.856 4.001,-1.891 3.815,-1.901 3.633,-1.861 3.476,-1.785 2.3,-1.216 1.147,-0.591 0,0"
             style="fill:#1963ff;fill-opacity:1;fill-rule:nonzero;stroke:none"
             id="path22"
             inkscape:connector-curvature="0" /></g><g
           id="g24"
           transform="translate(518.311,335.9062)"><path
             d="m 0,0 3.693,0.337 c 6.252,0.58 11.791,-4.019 12.37,-10.271 0.581,-6.252 -4.018,-11.791 -10.269,-12.371 -1.11,-0.102 -2.267,-0.025 -3.307,0.179 l -3.82,0.773 c -5.846,1.184 -9.625,6.882 -8.441,12.727 0.968,4.785 4.964,8.186 9.587,8.611 z"
             style="fill:#1963ff;fill-opacity:1;fill-rule:nonzero;stroke:none"
             id="path26"
             inkscape:connector-curvature="0" /></g><g
           id="g28"
           transform="translate(569.4243,342.0576)"><path
             d="M 0,0 3.583,0.574 3.614,0.58 c 9.438,1.515 18.317,-4.909 19.831,-14.347 1.516,-9.438 -4.907,-18.317 -14.345,-19.832 -0.997,-0.16 -2.085,-0.226 -3.061,-0.215 l -3.944,0.072 c -9.363,0.173 -16.814,7.903 -16.641,17.266 0.153,8.34 6.301,15.162 14.26,16.432 z"
             style="fill:#1963ff;fill-opacity:1;fill-rule:nonzero;stroke:none"
             id="path30"
             inkscape:connector-curvature="0" /></g><g
           id="g32"
           transform="translate(618.8481,351.6865)"><path
             d="m 0,0 3.452,0.839 0.142,0.035 c 10.834,2.632 21.749,-4.016 24.382,-14.849 2.631,-10.833 -4.016,-21.748 -14.848,-24.379 -0.376,-0.092 -0.813,-0.182 -1.19,-0.251 l -3.92,-0.707 c -10.908,-1.963 -21.341,5.285 -23.305,16.191 -1.888,10.487 4.741,20.536 14.95,23.04 z"
             style="fill:#1963ff;fill-opacity:1;fill-rule:nonzero;stroke:none"
             id="path34"
             inkscape:connector-curvature="0" /></g><g
           id="g36"
           transform="translate(666.2773,365.9219)"><path
             d="M 0,0 3.29,1.233 3.557,1.334 C 14.21,5.327 26.082,-0.071 30.074,-10.724 34.016,-21.238 28.785,-32.95 18.403,-37.09 l -3.743,-1.49 c -10.59,-4.216 -22.591,0.952 -26.807,11.543 -4.213,10.59 0.954,22.592 11.544,26.807 0.096,0.039 0.193,0.077 0.29,0.113 z"
             style="fill:#1963ff;fill-opacity:1;fill-rule:nonzero;stroke:none"
             id="path38"
             inkscape:connector-curvature="0" /></g><g
           id="g40"
           transform="translate(711.2686,385.8369)"><path
             d="m 0,0 3.127,1.628 0.386,0.201 c 9.096,4.737 20.31,1.202 25.048,-7.894 4.33,-8.315 1.742,-18.4 -5.68,-23.689 l -3.29,-2.349 c -8.474,-6.049 -20.248,-4.085 -26.298,4.388 -6.051,8.473 -4.087,20.247 4.387,26.299 0.697,0.498 1.416,0.94 2.152,1.331 z"
             style="fill:#1963ff;fill-opacity:1;fill-rule:nonzero;stroke:none"
             id="path42"
             inkscape:connector-curvature="0" /></g><g
           id="g44"
           transform="translate(753.6484,411.9355)"><path
             d="m 0,0 2.934,2.086 0.304,0.216 c 6.168,4.383 14.723,2.936 19.106,-3.232 3.686,-5.188 3.238,-12.071 -0.663,-16.734 l -2.56,-3.057 c -5.04,-6.018 -14.006,-6.812 -20.025,-1.772 -6.019,5.04 -6.812,14.005 -1.772,20.024 0.781,0.934 1.73,1.79 2.676,2.469"
             style="fill:#1963ff;fill-opacity:1;fill-rule:nonzero;stroke:none"
             id="path46"
             inkscape:connector-curvature="0" /></g><g
           id="g48"
           transform="translate(793.6846,444.3882)"><path
             d="m 0,0 2.794,2.55 0.077,0.071 c 2.082,1.9 5.311,1.754 7.214,-0.329 1.424,-1.56 1.696,-3.767 0.868,-5.574 L 9.315,-6.845 c -1.36,-2.963 -4.864,-4.26 -7.825,-2.899 -2.962,1.36 -4.26,4.865 -2.899,7.826 0.336,0.731 0.804,1.362 1.361,1.876 z"
             style="fill:#1963ff;fill-opacity:1;fill-rule:nonzero;stroke:none"
             id="path50"
             inkscape:connector-curvature="0" /></g><g
           id="g52"
           transform="translate(567.5415,290.2305)"><path
             d="m 0,0 3.684,-0.258 0.07,-0.005 C 6.399,-0.447 8.394,-2.74 8.208,-5.385 8.023,-8.029 5.731,-10.022 3.087,-9.838 2.878,-9.823 2.646,-9.79 2.447,-9.75 l -3.779,0.783 c -2.454,0.508 -4.032,2.911 -3.523,5.365 0.466,2.253 2.528,3.767 4.761,3.609 z"
             style="fill:#1963ff;fill-opacity:1;fill-rule:nonzero;stroke:none"
             id="path54"
             inkscape:connector-curvature="0" /></g><g
           id="g56"
           transform="translate(618.9775,291.4697)"><path
             d="M 0,0 3.622,0.493 3.717,0.507 C 7.774,1.06 11.51,-1.78 12.063,-5.837 12.617,-9.893 9.777,-13.63 5.72,-14.183 5.524,-14.209 5.312,-14.229 5.119,-14.24 l -3.88,-0.209 c -4,-0.216 -7.417,2.852 -7.633,6.853 -0.204,3.791 2.541,7.06 6.235,7.575 z"
             style="fill:#1963ff;fill-opacity:1;fill-rule:nonzero;stroke:none"
             id="path58"
             inkscape:connector-curvature="0" /></g><g
           id="g60"
           transform="translate(668.8628,302.748)"><path
             d="M 0,0 3.465,1.146 3.568,1.18 c 4.691,1.55 9.751,-0.995 11.304,-5.686 1.551,-4.691 -0.994,-9.753 -5.687,-11.305 -0.105,-0.035 -0.247,-0.078 -0.354,-0.108 l -3.74,-1.066 c -4.71,-1.345 -9.614,1.384 -10.959,6.092 -1.307,4.585 1.243,9.357 5.724,10.846 z"
             style="fill:#1963ff;fill-opacity:1;fill-rule:nonzero;stroke:none"
             id="path62"
             inkscape:connector-curvature="0" /></g><g
           id="g64"
           transform="translate(716.1885,322.3154)"><path
             d="m 0,0 3.255,1.676 0.09,0.047 c 4.634,2.387 10.325,0.565 12.711,-4.068 2.386,-4.633 0.566,-10.323 -4.068,-12.71 l -0.07,-0.035 -3.456,-1.745 c -4.645,-2.344 -10.31,-0.478 -12.653,4.167 -2.333,4.619 -0.5,10.25 4.091,12.616 z"
             style="fill:#1963ff;fill-opacity:1;fill-rule:nonzero;stroke:none"
             id="path66"
             inkscape:connector-curvature="0" /></g><g
           id="g68"
           transform="translate(760.5488,348.4727)"><path
             d="m 0,0 3.043,2.062 0.073,0.049 c 4.111,2.786 9.7,1.711 12.487,-2.399 2.721,-4.02 1.742,-9.462 -2.145,-12.306 l -3.102,-2.263 c -4.041,-2.949 -9.708,-2.064 -12.656,1.977 -2.948,4.041 -2.063,9.706 1.979,12.656 0.074,0.054 0.149,0.108 0.225,0.16 z"
             style="fill:#1963ff;fill-opacity:1;fill-rule:nonzero;stroke:none"
             id="path70"
             inkscape:connector-curvature="0" /></g><g
           id="g72"
           transform="translate(802.1152,379.5049)"><path
             d="m 0,0 2.879,2.357 0.048,0.04 c 3.199,2.62 7.914,2.151 10.535,-1.046 2.481,-3.032 2.168,-7.446 -0.591,-10.127 l -2.753,-2.662 c -3.035,-2.933 -7.874,-2.85 -10.805,0.185 -2.935,3.035 -2.852,7.873 0.184,10.808 0.148,0.141 0.298,0.277 0.455,0.406 z"
             style="fill:#1963ff;fill-opacity:1;fill-rule:nonzero;stroke:none"
             id="path74"
             inkscape:connector-curvature="0" /></g><g
           id="g76"
           transform="translate(841.3066,414.145)"><path
             d="M 0,0 2.703,2.585 2.728,2.608 C 4.675,4.471 7.764,4.401 9.626,2.453 11.359,0.642 11.421,-2.158 9.852,-4.039 L 7.423,-6.96 c -1.8,-2.165 -5.015,-2.459 -7.18,-0.66 -2.162,1.8 -2.458,5.013 -0.658,7.177 0.124,0.15 0.255,0.29 0.394,0.422 z"
             style="fill:#1963ff;fill-opacity:1;fill-rule:nonzero;stroke:none"
             id="path78"
             inkscape:connector-curvature="0" /></g><g
           id="g80"
           transform="translate(677.0068,459.0298)"><path
             d="m 0,0 c 0,-31.31 -25.382,-56.692 -56.692,-56.692 -31.31,0 -56.693,25.382 -56.693,56.692 0,31.311 25.383,56.692 56.693,56.692 C -25.382,56.692 0,31.311 0,0"
             style="fill:#575859;fill-opacity:1;fill-rule:nonzero;stroke:none"
             id="path82"
             inkscape:connector-curvature="0" /></g><g
           id="g84"
           transform="translate(370.0254,422.6411)"><path
             d="M 0,0 1.984,3.235 C 2.807,4.577 4.561,4.998 5.901,4.175 7.243,3.353 7.664,1.599 6.841,0.257 6.795,0.184 6.748,0.113 6.698,0.044 L 6.681,0.021 4.438,-2.978 4.422,-2.999 C 3.539,-4.182 1.862,-4.425 0.679,-3.541 -0.435,-2.708 -0.708,-1.165 0,0"
             style="fill:#1963ff;fill-opacity:1;fill-rule:nonzero;stroke:none"
             id="path86"
             inkscape:connector-curvature="0" /></g><g
           id="g88"
           transform="translate(400.7563,466.2104)"><path
             d="m 0,0 2.417,2.942 c 1.697,2.067 4.747,2.366 6.812,0.67 2.068,-1.697 2.366,-4.747 0.67,-6.813 C 9.842,-3.272 9.781,-3.34 9.72,-3.408 L 9.685,-3.445 7.151,-6.18 7.122,-6.211 C 5.348,-8.127 2.358,-8.242 0.443,-6.468 -1.399,-4.762 -1.567,-1.917 0,0"
             style="fill:#1963ff;fill-opacity:1;fill-rule:nonzero;stroke:none"
             id="path90"
             inkscape:connector-curvature="0" /></g><g
           id="g92"
           transform="translate(436.8979,505.6455)"><path
             d="m 0,0 2.75,2.65 c 2.548,2.456 6.606,2.381 9.065,-0.169 2.456,-2.55 2.38,-6.609 -0.17,-9.065 C 11.559,-6.669 11.47,-6.75 11.378,-6.829 L 11.328,-6.872 8.505,-9.285 8.46,-9.322 C 5.816,-11.582 1.842,-11.271 -0.418,-8.626 -2.593,-6.083 -2.374,-2.295 0,0"
             style="fill:#1963ff;fill-opacity:1;fill-rule:nonzero;stroke:none"
             id="path94"
             inkscape:connector-curvature="0" /></g><g
           id="g96"
           transform="translate(477.7197,540.4272)"><path
             d="M 0,0 3.068,2.298 C 6.406,4.801 11.142,4.122 13.642,0.784 16.145,-2.555 15.466,-7.29 12.126,-9.792 12.049,-9.851 11.97,-9.908 11.889,-9.963 L 11.816,-10.012 8.755,-12.108 8.7,-12.146 C 5.294,-14.477 0.646,-13.605 -1.686,-10.201 -3.954,-6.889 -3.177,-2.388 0,0"
             style="fill:#1963ff;fill-opacity:1;fill-rule:nonzero;stroke:none"
             id="path98"
             inkscape:connector-curvature="0" /></g><g
           id="g100"
           transform="translate(522.5283,570.1143)"><path
             d="m 0,0 3.323,1.905 c 4.025,2.308 9.159,0.916 11.466,-3.11 2.307,-4.024 0.915,-9.157 -3.111,-11.465 -0.052,-0.03 -0.103,-0.059 -0.155,-0.087 l -0.09,-0.049 -3.255,-1.755 -0.063,-0.034 C 4.057,-16.783 -1.009,-15.268 -3.198,-11.209 -5.35,-7.216 -3.91,-2.246 0,0"
             style="fill:#1963ff;fill-opacity:1;fill-rule:nonzero;stroke:none"
             id="path102"
             inkscape:connector-curvature="0" /></g><g
           id="g104"
           transform="translate(570.5269,594.4087)"><path
             d="m 0,0 3.537,1.501 c 4.601,1.952 9.915,-0.195 11.868,-4.797 1.953,-4.602 -0.196,-9.915 -4.796,-11.868 l -0.08,-0.033 -0.062,-0.026 -3.421,-1.414 -0.067,-0.027 C 2.37,-18.569 -2.914,-16.377 -4.818,-11.766 -6.712,-7.183 -4.553,-1.934 0,0"
             style="fill:#1963ff;fill-opacity:1;fill-rule:nonzero;stroke:none"
             id="path106"
             inkscape:connector-curvature="0" /></g><g
           id="g108"
           transform="translate(621.0557,612.9277)"><path
             d="m 0,0 3.677,1.118 c 4.902,1.489 10.085,-1.277 11.575,-6.179 1.49,-4.903 -1.276,-10.085 -6.179,-11.576 L 8.997,-16.66 8.933,-16.679 5.377,-17.726 5.311,-17.745 C 0.404,-19.191 -4.745,-16.385 -6.19,-11.479 -7.629,-6.599 -4.857,-1.478 0,0"
             style="fill:#1963ff;fill-opacity:1;fill-rule:nonzero;stroke:none"
             id="path110"
             inkscape:connector-curvature="0" /></g><g
           id="g112"
           transform="translate(673.1963,626.0674)"><path
             d="m 0,0 3.765,0.716 c 5.088,0.968 9.997,-2.372 10.965,-7.461 0.96,-5.059 -2.336,-9.942 -7.376,-10.948 L 7.286,-17.706 3.651,-18.429 3.59,-18.441 c -5.09,-1.014 -10.035,2.289 -11.048,7.378 -1.014,5.088 2.289,10.035 7.378,11.048 z"
             style="fill:#1963ff;fill-opacity:1;fill-rule:nonzero;stroke:none"
             id="path114"
             inkscape:connector-curvature="0" /></g><g
           id="g116"
           transform="translate(726.3213,633.8374)"><path
             d="m 0,0 3.815,0.373 c 5.029,0.491 9.504,-3.187 9.997,-8.217 0.489,-5.001 -3.148,-9.454 -8.134,-9.987 l -0.061,-0.006 -3.699,-0.394 -0.056,-0.007 c -5.034,-0.535 -9.548,3.111 -10.085,8.145 -0.536,5.034 3.112,9.549 8.146,10.085 z"
             style="fill:#1963ff;fill-opacity:1;fill-rule:nonzero;stroke:none"
             id="path118"
             inkscape:connector-curvature="0" /></g><g
           id="g120"
           transform="translate(778.9395,638.3481)"><path
             d="M 0,0 3.721,0.381 3.76,0.385 c 4.774,0.49 9.041,-2.984 9.532,-7.759 0.481,-4.695 -2.883,-8.903 -7.535,-9.507 l -3.782,-0.487 c -4.788,-0.618 -9.168,2.763 -9.787,7.551 -0.618,4.788 2.763,9.17 7.552,9.787 0.061,0.008 0.123,0.015 0.184,0.022 z"
             style="fill:#1963ff;fill-opacity:1;fill-rule:nonzero;stroke:none"
             id="path122"
             inkscape:connector-curvature="0" /></g><g
           id="g124"
           transform="translate(830.7793,645.2656)"><path
             d="m 0,0 3.673,0.639 0.05,0.008 c 4.356,0.758 8.5,-2.158 9.257,-6.514 0.744,-4.281 -2.075,-8.362 -6.31,-9.217 l -3.751,-0.753 c -4.359,-0.876 -8.605,1.949 -9.481,6.31 -0.875,4.36 1.95,8.605 6.311,9.481 0.056,0.011 0.112,0.022 0.168,0.031 z"
             style="fill:#1963ff;fill-opacity:1;fill-rule:nonzero;stroke:none"
             id="path126"
             inkscape:connector-curvature="0" /></g><g
           id="g128"
           transform="translate(881.752,656.0767)"><path
             d="m 0,0 3.583,0.98 0.066,0.019 c 3.67,1.004 7.46,-1.156 8.465,-4.827 0.978,-3.568 -1.053,-7.255 -4.54,-8.38 L 3.915,-13.38 c -3.668,-1.177 -7.594,0.842 -8.769,4.509 -1.175,3.667 0.843,7.593 4.509,8.769 0.089,0.028 0.176,0.055 0.262,0.079 z"
             style="fill:#1963ff;fill-opacity:1;fill-rule:nonzero;stroke:none"
             id="path130"
             inkscape:connector-curvature="0" /></g><g
           id="g132"
           transform="translate(930.6865,673.0835)"><path
             d="M 0,0 3.351,1.542 3.44,1.584 c 2.748,1.265 6.003,0.062 7.268,-2.687 1.217,-2.644 0.137,-5.762 -2.394,-7.122 L 4.903,-10.05 c -2.724,-1.457 -6.115,-0.43 -7.572,2.295 -1.457,2.724 -0.43,6.114 2.294,7.571 0.094,0.051 0.188,0.098 0.284,0.142 z"
             style="fill:#1963ff;fill-opacity:1;fill-rule:nonzero;stroke:none"
             id="path134"
             inkscape:connector-curvature="0" /></g><g
           id="g136"
           transform="translate(973.9912,700.3926)"><path
             d="M 0,0 2.656,2.511 2.754,2.603 C 4.227,3.997 6.551,3.932 7.944,2.458 9.271,1.057 9.267,-1.125 7.996,-2.533 L 5.37,-5.426 c -1.418,-1.563 -3.835,-1.679 -5.397,-0.261 -1.562,1.418 -1.68,3.835 -0.262,5.397 0.064,0.071 0.131,0.138 0.197,0.203 z"
             style="fill:#1963ff;fill-opacity:1;fill-rule:nonzero;stroke:none"
             id="path138"
             inkscape:connector-curvature="0" /></g><g
           id="g140"
           transform="translate(412.4258,431.2759)"><path
             d="m 0,0 2.292,3.129 c 3.4,4.645 9.923,5.653 14.568,2.251 4.643,-3.401 5.652,-9.923 2.25,-14.568 -0.487,-0.666 -1.04,-1.258 -1.642,-1.773 l -0.066,-0.052 -2.845,-2.402 -0.096,-0.082 C 10.258,-17.045 3.974,-16.515 0.424,-12.312 -2.602,-8.727 -2.656,-3.625 0,0"
             style="fill:#1963ff;fill-opacity:1;fill-rule:nonzero;stroke:none"
             id="path142"
             inkscape:connector-curvature="0" /></g><g
           id="g144"
           transform="translate(458.3389,484.3218)"><path
             d="m 0,0 2.84,2.71 c 6.924,6.61 17.898,6.353 24.507,-0.572 6.611,-6.925 6.355,-17.897 -0.57,-24.507 -0.678,-0.648 -1.396,-1.23 -2.144,-1.746 l -0.113,-0.072 -3.019,-2.053 -0.197,-0.134 c -7.771,-5.279 -18.348,-3.26 -23.628,4.51 C -7.066,-14.884 -5.914,-5.635 0,0"
             style="fill:#1963ff;fill-opacity:1;fill-rule:nonzero;stroke:none"
             id="path146"
             inkscape:connector-curvature="0" /></g><g
           id="g148"
           transform="translate(513.4224,529.1875)"><path
             d="m 0,0 3.313,2.199 c 10.261,6.81 24.099,4.013 30.909,-6.246 6.81,-10.26 4.012,-24.098 -6.248,-30.907 -0.719,-0.478 -1.458,-0.91 -2.211,-1.294 l -0.074,-0.035 -3.197,-1.625 -0.292,-0.149 C 11.337,-43.578 -1.946,-39.246 -7.469,-28.382 -12.599,-18.287 -9.219,-6.104 0,0"
             style="fill:#1963ff;fill-opacity:1;fill-rule:nonzero;stroke:none"
             id="path150"
             inkscape:connector-curvature="0" /></g><g
           id="g152"
           transform="translate(576.5034,563.7783)"><path
             d="m 0,0 3.699,1.593 c 13.043,5.616 28.17,-0.405 33.785,-13.448 5.617,-13.043 -0.404,-28.17 -13.447,-33.786 -0.706,-0.304 -1.42,-0.574 -2.135,-0.811 l -0.135,-0.042 -3.36,-1.098 -0.376,-0.124 c -13.403,-4.381 -27.819,2.931 -32.2,16.333 C -18.298,-18.757 -11.944,-5.187 0,0"
             style="fill:#1963ff;fill-opacity:1;fill-rule:nonzero;stroke:none"
             id="path154"
             inkscape:connector-curvature="0" /></g><g
           id="g156"
           transform="translate(645.6919,585.8091)"><path
             d="m 0,0 3.967,0.825 c 14.916,3.102 29.523,-6.475 32.626,-21.392 3.102,-14.917 -6.476,-29.525 -21.392,-32.627 -0.318,-0.066 -0.635,-0.127 -0.952,-0.181 l -0.304,-0.051 -3.454,-0.578 -0.346,-0.058 C -4.84,-56.571 -19.02,-46.457 -21.529,-31.473 -23.974,-16.865 -14.365,-3.008 0,0"
             style="fill:#1963ff;fill-opacity:1;fill-rule:nonzero;stroke:none"
             id="path158"
             inkscape:connector-curvature="0" /></g><g
           id="g160"
           transform="translate(718.041,594.0586)"><path
             d="M 0,0 4.046,0.066 C 19.679,0.323 32.558,-12.141 32.813,-27.772 33.069,-43.403 20.605,-56.283 4.976,-56.54 4.903,-56.541 4.832,-56.542 4.76,-56.542 L 4.363,-56.544 0.856,-56.556 0.56,-56.557 c -15.618,-0.052 -28.324,12.566 -28.375,28.185 C -27.868,-12.884 -15.438,-0.261 0,0"
             style="fill:#1963ff;fill-opacity:1;fill-rule:nonzero;stroke:none"
             id="path162"
             inkscape:connector-curvature="0" /></g><g
           id="g164"
           transform="translate(788.1084,589.5093)"><path
             d="M 0,0 3.515,-0.306 3.852,-0.335 C 19.03,-1.66 30.262,-15.037 28.94,-30.217 27.656,-44.922 14.99,-55.92 0.403,-55.388 l -4.025,0.153 c -15.28,0.584 -27.194,13.443 -26.609,28.723 0.582,15.28 13.442,27.193 28.722,26.611 0.419,-0.017 0.835,-0.042 1.25,-0.076 z"
             style="fill:#1963ff;fill-opacity:1;fill-rule:nonzero;stroke:none"
             id="path166"
             inkscape:connector-curvature="0" /></g><g
           id="g168"
           transform="translate(851.2373,588.3789)"><path
             d="m 0,0 3.49,0.217 0.498,0.03 C 17.747,1.099 29.593,-9.364 30.445,-23.124 31.238,-35.932 22.223,-47.08 9.875,-49.247 l -4.006,-0.709 c -13.699,-2.42 -26.769,6.722 -29.191,20.423 -2.421,13.701 6.721,26.77 20.423,29.193 0.938,0.166 1.874,0.277 2.803,0.336 z"
             style="fill:#1963ff;fill-opacity:1;fill-rule:nonzero;stroke:none"
             id="path170"
             inkscape:connector-curvature="0" /></g><g
           id="g172"
           transform="translate(913.4814,597.7695)"><path
             d="m 0,0 3.405,0.883 0.511,0.133 c 10.73,2.785 21.688,-3.658 24.473,-14.389 2.482,-9.569 -2.379,-19.318 -11.07,-23.29 l -3.696,-1.693 c -10.258,-4.701 -22.385,-0.195 -27.085,10.064 -4.7,10.258 -0.193,22.386 10.065,27.085 C -2.324,-0.714 -1.104,-0.294 0,0"
             style="fill:#1963ff;fill-opacity:1;fill-rule:nonzero;stroke:none"
             id="path174"
             inkscape:connector-curvature="0" /></g><g
           id="g176"
           transform="translate(973.5068,619.8242)"><path
             d="M 0,0 3.229,1.633 3.55,1.795 c 6.142,3.107 13.64,0.646 16.747,-5.497 2.591,-5.125 1.297,-11.199 -2.77,-14.874 l -2.968,-2.683 c -5.33,-4.811 -13.548,-4.393 -18.362,0.935 -4.81,5.328 -4.392,13.548 0.936,18.36 0.862,0.778 1.8,1.42 2.786,1.926 z"
             style="fill:#1963ff;fill-opacity:1;fill-rule:nonzero;stroke:none"
             id="path178"
             inkscape:connector-curvature="0" /></g><g
           id="g180"
           transform="translate(808.7344,439.2461)"><path
             d="m 0,0 c 0,-4.693 -3.805,-8.498 -8.497,-8.498 -4.693,0 -8.497,3.805 -8.497,8.498 0,4.693 3.804,8.497 8.497,8.497 C -3.805,8.497 0,4.693 0,0"
             style="fill:#1963ff;fill-opacity:1;fill-rule:nonzero;stroke:none"
             id="path182"
             inkscape:connector-curvature="0" /></g><g
           id="g184"
           transform="translate(855.2852,412.6455)"><path
             d="m 0,0 c 0,-4.693 -3.805,-8.498 -8.497,-8.498 -4.693,0 -8.497,3.805 -8.497,8.498 0,4.693 3.804,8.497 8.497,8.497 C -3.805,8.497 0,4.693 0,0"
             style="fill:#1963ff;fill-opacity:1;fill-rule:nonzero;stroke:none"
             id="path186"
             inkscape:connector-curvature="0" /></g></g></g><g
       id="g188"><g
         id="g190"
         clip-path="url(#clipPath194)"><g
           id="g196"><g
             id="g198"><path
               d="m 465.884,329.889 c 0,-4.694 3.804,-8.498 8.497,-8.498 v 0 c 4.693,0 8.498,3.804 8.498,8.498 v 0 c 0,4.692 -3.805,8.497 -8.498,8.497 v 0 c -4.693,0 -8.497,-3.805 -8.497,-8.497"
               style="fill:url(#linearGradient208);stroke:none"
               id="path210"
               inkscape:connector-curvature="0" /></g></g></g></g><g
       id="g212"><g
         id="g214"
         clip-path="url(#clipPath218)"><g
           id="g220"><g
             id="g222"><path
               d="m 523.518,296.637 c 0,-4.691 3.805,-8.497 8.497,-8.497 v 0 c 4.694,0 8.498,3.806 8.498,8.497 v 0 c 0,4.694 -3.804,8.498 -8.498,8.498 v 0 c -4.692,0 -8.497,-3.804 -8.497,-8.498"
               style="fill:url(#linearGradient232);stroke:none"
               id="path234"
               inkscape:connector-curvature="0" /></g></g></g></g><g
       id="g236"><g
         transform="translate(472.9487,111.0928)"
         id="g244"
         style="fill:#e3e2db"><path
           inkscape:connector-curvature="0"
           id="path246"
           style="fill:#e3e2db;fill-opacity:1;fill-rule:nonzero;stroke:none"
           d="m 0,0 c 1.428,0 2.453,0.328 3.083,0.981 0.631,0.653 0.948,1.504 0.948,2.552 0,0.996 -0.317,1.819 -0.948,2.46 C 2.453,6.635 1.428,6.956 0,6.956 H -4.709 V 0 Z M -9.67,-12.628 V 11.057 H 0.782 c 1.166,0 2.213,-0.196 3.142,-0.586 C 4.85,10.076 5.646,9.53 6.314,8.829 6.978,8.129 7.491,7.313 7.849,6.384 8.203,5.458 8.383,4.459 8.383,3.39 8.383,2.319 8.203,1.324 7.849,0.409 7.491,-0.505 6.978,-1.291 6.314,-1.943 5.646,-2.601 4.85,-3.109 3.924,-3.478 2.995,-3.847 1.948,-4.031 0.782,-4.031 h -5.491 v -8.597 z" /></g><g
         transform="translate(507.1929,107.0615)"
         id="g248"
         style="fill:#e3e2db"><path
           inkscape:connector-curvature="0"
           id="path250"
           style="fill:#e3e2db;fill-opacity:1;fill-rule:nonzero;stroke:none"
           d="m 0,0 c -0.236,-0.239 -0.583,-0.428 -1.033,-0.571 -0.453,-0.141 -1.106,-0.295 -1.962,-0.461 -1.331,-0.266 -2.246,-0.598 -2.747,-1 -0.498,-0.406 -0.749,-0.989 -0.749,-1.748 0,-1.31 0.749,-1.962 2.246,-1.962 0.598,0 1.151,0.099 1.66,0.303 0.512,0.202 0.951,0.475 1.32,0.818 0.369,0.347 0.668,0.752 0.892,1.214 0.226,0.464 0.34,0.958 0.34,1.482 z m 0.325,-8.597 c -0.144,0.451 -0.24,0.974 -0.288,1.572 -0.546,-0.621 -1.272,-1.115 -2.176,-1.484 -0.903,-0.368 -1.951,-0.553 -3.139,-0.553 -2.021,0 -3.503,0.447 -4.44,1.339 -0.941,0.893 -1.409,2.051 -1.409,3.478 0,1.262 0.199,2.265 0.605,3.014 0.406,0.748 0.962,1.338 1.678,1.766 0.712,0.428 1.564,0.745 2.549,0.944 0.988,0.203 2.065,0.387 3.23,0.553 1.166,0.166 1.948,0.388 2.353,0.66 0.406,0.274 0.605,0.719 0.605,1.339 0,0.572 -0.266,1.018 -0.8,1.339 -0.535,0.32 -1.254,0.48 -2.158,0.48 -1.069,0 -1.836,-0.237 -2.301,-0.712 C -5.831,4.662 -6.122,4.031 -6.24,3.246 h -4.319 c 0.026,0.903 0.173,1.736 0.446,2.496 0.273,0.764 0.716,1.417 1.321,1.962 0.608,0.546 1.397,0.971 2.371,1.27 0.978,0.295 2.165,0.442 3.57,0.442 1.379,0 2.549,-0.155 3.511,-0.461 C 1.626,8.646 2.397,8.199 2.98,7.616 3.563,7.033 3.983,6.307 4.245,5.44 4.507,4.573 4.64,3.593 4.64,2.497 V -8.597 Z" /></g><g
         transform="translate(527.9531,98.4648)"
         id="g252"
         style="fill:#e3e2db"><path
           inkscape:connector-curvature="0"
           id="path254"
           style="fill:#e3e2db;fill-opacity:1;fill-rule:nonzero;stroke:none"
           d="m 0,0 v 17.552 h 4.352 v -2.107 c 0.384,0.594 0.782,1.059 1.199,1.391 0.413,0.336 0.841,0.59 1.283,0.768 0.439,0.18 0.885,0.291 1.335,0.338 0.454,0.048 0.918,0.071 1.394,0.071 h 0.605 V 13.27 C 9.74,13.34 9.313,13.377 8.885,13.377 6.052,13.377 4.64,11.96 4.64,9.132 V 0 Z" /></g><g
         transform="translate(563.4141,110.0234)"
         id="g256"
         style="fill:#e3e2db"><path
           inkscape:connector-curvature="0"
           id="path258"
           style="fill:#e3e2db;fill-opacity:1;fill-rule:nonzero;stroke:none"
           d="M 0,0 H 4.315 V -4.994 C 4.315,-5.923 4.179,-6.809 3.906,-7.653 3.633,-8.498 3.205,-9.246 2.623,-9.899 2.04,-10.556 1.302,-11.072 0.41,-11.452 c -0.893,-0.38 -1.955,-0.571 -3.191,-0.571 -1.287,0 -2.379,0.191 -3.282,0.571 -0.904,0.38 -1.648,0.892 -2.231,1.534 -0.583,0.643 -1.003,1.391 -1.266,2.246 -0.261,0.857 -0.394,1.76 -0.394,2.711 v 15.696 h 4.57 V 5.993 H 4.315 V 2.711 h -9.699 v -7.207 c 0,-1.117 0.206,-1.981 0.623,-2.585 0.417,-0.608 1.099,-0.911 2.051,-0.911 0.925,0 1.611,0.299 2.05,0.892 0.439,0.594 0.66,1.439 0.66,2.534 z" /></g><path
         inkscape:connector-curvature="0"
         id="path260"
         style="fill:#e3e2db;fill-opacity:1;fill-rule:nonzero;stroke:none"
         d="m 583.78,116.017 h 4.64 V 98.465 h -4.64 z m 0,6.421 h 4.64 v -4.319 h -4.64 z" /><g
         transform="translate(620.4507,104.8154)"
         id="g262"
         style="fill:#e3e2db"><path
           inkscape:connector-curvature="0"
           id="path264"
           style="fill:#e3e2db;fill-opacity:1;fill-rule:nonzero;stroke:none"
           d="m 0,0 c -0.118,-1.025 -0.409,-1.951 -0.874,-2.784 -0.461,-0.834 -1.051,-1.546 -1.763,-2.14 -0.716,-0.594 -1.53,-1.057 -2.445,-1.389 -0.915,-0.336 -1.907,-0.502 -2.98,-0.502 -1.188,0 -2.276,0.195 -3.264,0.589 -0.985,0.392 -1.837,0.986 -2.549,1.782 -0.715,0.797 -1.269,1.785 -1.659,2.962 -0.391,1.176 -0.591,2.551 -0.591,4.119 0,1.571 0.2,2.928 0.591,4.068 0.39,1.144 0.944,2.076 1.659,2.8 0.712,0.725 1.575,1.268 2.586,1.622 1.01,0.358 2.135,0.535 3.371,0.535 1.143,0 2.183,-0.155 3.12,-0.461 0.94,-0.309 1.759,-0.763 2.464,-1.357 0.7,-0.594 1.253,-1.306 1.659,-2.139 0.402,-0.834 0.642,-1.76 0.712,-2.785 h -4.673 c -0.118,0.903 -0.483,1.612 -1.088,2.125 -0.609,0.512 -1.35,0.767 -2.231,0.767 -0.498,0 -0.963,-0.085 -1.391,-0.251 -0.427,-0.166 -0.8,-0.447 -1.125,-0.837 -0.321,-0.395 -0.575,-0.915 -0.763,-1.572 -0.192,-0.652 -0.287,-1.457 -0.287,-2.408 0,-1.925 0.346,-3.352 1.036,-4.278 0.69,-0.93 1.486,-1.391 2.39,-1.391 0.903,0 1.674,0.247 2.316,0.749 0.641,0.498 1.01,1.225 1.106,2.176 z" /></g><path
         inkscape:connector-curvature="0"
         id="path266"
         style="fill:#e3e2db;fill-opacity:1;fill-rule:nonzero;stroke:none"
         d="m 635.893,122.438 h 4.64 V 98.465 h -4.64 z" /><g
         transform="translate(668.1782,108.9541)"
         id="g268"
         style="fill:#e3e2db"><path
           inkscape:connector-curvature="0"
           id="path270"
           style="fill:#e3e2db;fill-opacity:1;fill-rule:nonzero;stroke:none"
           d="M 0,0 C -0.022,0.642 -0.136,1.205 -0.339,1.692 -0.539,2.18 -0.808,2.585 -1.14,2.906 -1.475,3.227 -1.855,3.463 -2.283,3.617 -2.71,3.772 -3.149,3.85 -3.603,3.85 -4.529,3.85 -5.333,3.511 -6.008,2.836 -6.687,2.157 -7.074,1.213 -7.169,0 Z m -7.313,-2.925 c 0.073,-1.335 0.46,-2.393 1.161,-3.176 0.701,-0.785 1.623,-1.176 2.763,-1.176 0.763,0 1.434,0.17 2.017,0.516 0.583,0.343 0.955,0.826 1.125,1.443 h 4.78 C 3.983,-7.126 3.032,-8.517 1.678,-9.49 c -1.357,-0.977 -2.972,-1.464 -4.853,-1.464 -5.85,0 -8.774,3.186 -8.774,9.559 0,1.358 0.192,2.582 0.572,3.677 0.379,1.092 0.933,2.032 1.659,2.819 0.723,0.785 1.608,1.382 2.656,1.799 1.047,0.416 2.249,0.623 3.603,0.623 2.71,0 4.761,-0.867 6.155,-2.603 C 4.086,3.187 4.78,0.567 4.78,-2.925 Z" /></g><g
         transform="translate(718.9414,98.4648)"
         id="g272"
         style="fill:#e3e2db"><path
           inkscape:connector-curvature="0"
           id="path274"
           style="fill:#e3e2db;fill-opacity:1;fill-rule:nonzero;stroke:none"
           d="m 0,0 -8.025,23.685 h 5.281 L 2.427,7.062 7.564,23.685 h 5.138 L 4.673,0 Z" /></g><path
         inkscape:connector-curvature="0"
         id="path276"
         style="fill:#e3e2db;fill-opacity:1;fill-rule:nonzero;stroke:none"
         d="m 747.085,116.017 h 4.64 V 98.465 h -4.64 z m 0,6.421 h 4.64 v -4.319 h -4.64 z" /><g
         transform="translate(779.5107,108.9541)"
         id="g278"
         style="fill:#e3e2db"><path
           inkscape:connector-curvature="0"
           id="path280"
           style="fill:#e3e2db;fill-opacity:1;fill-rule:nonzero;stroke:none"
           d="M 0,0 C -0.022,0.642 -0.137,1.205 -0.339,1.692 -0.538,2.18 -0.808,2.585 -1.14,2.906 -1.475,3.227 -1.854,3.463 -2.283,3.617 -2.711,3.772 -3.149,3.85 -3.604,3.85 -4.529,3.85 -5.333,3.511 -6.008,2.836 -6.687,2.157 -7.073,1.213 -7.17,0 Z m -7.313,-2.925 c 0.074,-1.335 0.46,-2.393 1.162,-3.176 0.7,-0.785 1.622,-1.176 2.761,-1.176 0.764,0 1.436,0.17 2.018,0.516 0.583,0.343 0.955,0.826 1.125,1.443 h 4.78 C 3.983,-7.126 3.032,-8.517 1.679,-9.49 c -1.358,-0.977 -2.973,-1.464 -4.855,-1.464 -5.848,0 -8.773,3.186 -8.773,9.559 0,1.358 0.191,2.582 0.571,3.677 0.38,1.092 0.934,2.032 1.66,2.819 0.723,0.785 1.608,1.382 2.656,1.799 1.046,0.416 2.25,0.623 3.603,0.623 2.71,0 4.761,-0.867 6.155,-2.603 C 4.087,3.187 4.78,0.567 4.78,-2.925 Z" /></g><g
         transform="translate(813.3643,98.4648)"
         id="g282"
         style="fill:#e3e2db"><path
           inkscape:connector-curvature="0"
           id="path284"
           style="fill:#e3e2db;fill-opacity:1;fill-rule:nonzero;stroke:none"
           d="M 0,0 -2.781,10.201 -5.562,0 h -4.747 l -4.994,17.552 h 4.888 l 2.854,-11.275 2.427,11.275 h 4.706 L 2.319,6.277 4.997,17.552 H 9.776 L 4.746,0 Z" /></g><g
         transform="translate(848.9316,108.9541)"
         id="g286"
         style="fill:#e3e2db"><path
           inkscape:connector-curvature="0"
           id="path288"
           style="fill:#e3e2db;fill-opacity:1;fill-rule:nonzero;stroke:none"
           d="M 0,0 C -0.021,0.642 -0.136,1.205 -0.339,1.692 -0.538,2.18 -0.808,2.585 -1.14,2.906 -1.475,3.227 -1.854,3.463 -2.282,3.617 -2.711,3.772 -3.149,3.85 -3.603,3.85 -4.528,3.85 -5.333,3.511 -6.008,2.836 -6.687,2.157 -7.073,1.213 -7.169,0 Z m -7.313,-2.925 c 0.074,-1.335 0.46,-2.393 1.162,-3.176 0.7,-0.785 1.623,-1.176 2.762,-1.176 0.763,0 1.435,0.17 2.017,0.516 0.583,0.343 0.956,0.826 1.125,1.443 h 4.78 C 3.983,-7.126 3.032,-8.517 1.679,-9.49 c -1.358,-0.977 -2.973,-1.464 -4.854,-1.464 -5.849,0 -8.774,3.186 -8.774,9.559 0,1.358 0.191,2.582 0.571,3.677 0.38,1.092 0.934,2.032 1.66,2.819 0.723,0.785 1.609,1.382 2.656,1.799 1.047,0.416 2.25,0.623 3.603,0.623 2.711,0 4.761,-0.867 6.155,-2.603 C 4.087,3.187 4.78,0.567 4.78,-2.925 Z" /></g><g
         transform="translate(869.4082,98.4648)"
         id="g290"
         style="fill:#e3e2db"><path
           inkscape:connector-curvature="0"
           id="path292"
           style="fill:#e3e2db;fill-opacity:1;fill-rule:nonzero;stroke:none"
           d="m 0,0 v 17.552 h 4.352 v -2.107 c 0.383,0.594 0.782,1.059 1.199,1.391 0.413,0.336 0.841,0.59 1.283,0.768 0.438,0.18 0.885,0.291 1.335,0.338 0.454,0.048 0.919,0.071 1.394,0.071 h 0.605 V 13.27 C 9.74,13.34 9.313,13.377 8.885,13.377 6.052,13.377 4.64,11.96 4.64,9.132 V 0 Z" /></g><g
         transform="translate(431.374,186.7031)"
         id="g294"
         style="fill:#e3e2db"><path
           inkscape:connector-curvature="0"
           id="path296"
           style="fill:#e3e2db;fill-opacity:1;fill-rule:nonzero;stroke:none"
           d="M 0,0 C 3.488,0 6.002,0.799 7.539,2.396 9.08,3.994 9.851,6.07 9.851,8.631 9.851,11.07 9.08,13.075 7.539,14.644 6.002,16.213 3.488,16.998 0,16.998 H -11.505 V 0 Z M -23.625,-30.86 V 27.023 H 1.918 c 2.847,0 5.404,-0.478 7.672,-1.437 2.264,-0.959 4.212,-2.297 5.842,-4.013 1.626,-1.712 2.875,-3.701 3.748,-5.969 0.87,-2.265 1.305,-4.708 1.305,-7.323 C 20.485,5.667 20.05,3.238 19.18,1.002 18.307,-1.237 17.058,-3.152 15.432,-4.75 13.802,-6.352 11.854,-7.6 9.59,-8.499 7.322,-9.401 4.765,-9.851 1.918,-9.851 H -11.505 V -30.86 Z" /></g><g
         transform="translate(497.6279,176.8525)"
         id="g298"
         style="fill:#e3e2db"><path
           inkscape:connector-curvature="0"
           id="path300"
           style="fill:#e3e2db;fill-opacity:1;fill-rule:nonzero;stroke:none"
           d="m 0,0 c -0.582,-0.581 -1.427,-1.048 -2.529,-1.395 -1.105,-0.349 -2.703,-0.727 -4.793,-1.133 -3.256,-0.642 -5.492,-1.455 -6.712,-2.444 -1.223,-0.987 -1.833,-2.411 -1.833,-4.268 0,-3.199 1.833,-4.797 5.492,-4.797 1.452,0 2.803,0.249 4.055,0.741 1.248,0.492 2.322,1.163 3.224,2.005 0.903,0.842 1.627,1.833 2.179,2.964 0.553,1.134 0.828,2.339 0.828,3.62 z m 0.062,-21.102 c -2.207,-0.898 -10.059,-1.042 -12.965,-1.042 -4.94,0 -8.556,1.091 -10.853,3.271 -2.297,2.179 -3.442,5.011 -3.442,8.498 0,3.082 0.492,5.535 1.48,7.365 0.988,1.833 2.354,3.271 4.098,4.316 1.744,1.048 3.82,1.815 6.234,2.31 2.411,0.492 5.04,0.946 7.889,1.353 2.846,0.406 4.765,0.944 5.753,1.611 0.988,0.667 1.484,1.759 1.484,3.271 0,1.394 -0.657,2.482 -1.962,3.266 -1.309,0.785 -3.067,1.178 -5.275,1.178 -2.614,0 -4.49,-0.582 -5.624,-1.744 -0.566,-0.582 -1.026,-1.257 -1.382,-2.027 -0.774,-1.67 -2.605,-2.592 -4.446,-2.592 h -1.264 c -3.147,0 -5.574,3.08 -4.522,6.047 0.006,0.018 0.013,0.037 0.019,0.055 0.671,1.859 1.744,3.456 3.228,4.793 1.48,1.338 3.413,2.368 5.796,3.096 2.382,0.727 5.289,1.092 8.716,1.092 3.37,0 6.234,-0.382 8.588,-1.134 2.354,-0.757 4.241,-1.848 5.667,-3.271 1.423,-1.423 2.454,-3.196 3.096,-5.318 0.638,-2.122 0.956,-4.519 0.956,-7.189 0,0 1.236,-23.989 -11.269,-27.205" /></g><g
         transform="translate(604.1523,184.0859)"
         id="g302"
         style="fill:#e3e2db"><path
           inkscape:connector-curvature="0"
           id="path304"
           style="fill:#e3e2db;fill-opacity:1;fill-rule:nonzero;stroke:none"
           d="m 0,0 h 2.529 c 2.215,0 4.01,-1.796 4.01,-4.011 v -8.194 c 0,-2.265 -0.335,-4.43 -1.002,-6.494 -0.67,-2.062 -1.715,-3.892 -3.139,-5.489 -1.426,-1.601 -3.227,-2.864 -5.406,-3.794 -2.179,-0.928 -4.779,-1.395 -7.8,-1.395 -3.138,0 -5.813,0.467 -8.021,1.395 -2.211,0.93 -4.026,2.178 -5.449,3.748 -1.424,1.569 -2.454,3.402 -3.096,5.492 -0.639,2.094 -0.956,4.301 -0.956,6.627 v 34.346 c 0,2.215 1.795,4.01 4.011,4.01 h 3.134 c 2.215,0 4.011,-1.795 4.011,-4.01 v -3.574 c 0,-2.215 1.796,-4.01 4.01,-4.01 H 2.529 c 2.215,0 4.01,-1.795 4.01,-4.01 0,-2.215 -1.795,-4.011 -4.01,-4.011 h -15.693 c -2.214,0 -4.01,-1.796 -4.01,-4.011 v -13.596 c 0,-2.733 0.51,-4.84 1.527,-6.321 1.016,-1.483 2.685,-2.224 5.01,-2.224 2.268,0 3.938,0.727 5.014,2.178 1.074,1.452 1.613,3.517 1.613,6.192 v 7.145 C -4.01,-1.796 -2.215,0 0,0" /></g><g
         transform="translate(632.4824,161.1172)"
         id="g306"
         style="fill:#e3e2db"><path
           inkscape:connector-curvature="0"
           id="path308"
           style="fill:#e3e2db;fill-opacity:1;fill-rule:nonzero;stroke:none"
           d="m 0,0 v 32.341 c 0,2.913 2.362,5.275 5.275,5.275 h 0.781 c 2.913,0 5.275,-2.362 5.275,-5.275 V 0 c 0,-2.913 -2.362,-5.274 -5.275,-5.274 H 5.275 C 2.362,-5.274 0,-2.913 0,0 m 0,48.033 v 0 c 0,2.913 2.362,5.276 5.275,5.276 h 0.781 c 2.913,0 5.275,-2.363 5.275,-5.276 0,-2.913 -2.362,-5.274 -5.275,-5.274 H 5.275 C 2.362,42.759 0,45.12 0,48.033" /></g><g
         transform="translate(704.6602,171.3604)"
         id="g310"
         style="fill:#e3e2db"><path
           inkscape:connector-curvature="0"
           id="path312"
           style="fill:#e3e2db;fill-opacity:1;fill-rule:nonzero;stroke:none"
           d="m 0,0 c -0.292,-2.5 -1.002,-4.769 -2.136,-6.801 -1.135,-2.033 -2.571,-3.777 -4.315,-5.228 -1.744,-1.455 -3.735,-2.59 -5.971,-3.403 -2.239,-0.813 -4.665,-1.219 -7.279,-1.219 -2.906,0 -5.567,0.481 -7.978,1.44 -2.411,0.956 -4.49,2.411 -6.234,4.358 -1.74,1.944 -3.092,4.359 -4.051,7.233 -0.96,2.878 -1.438,6.234 -1.438,10.072 0,3.834 0.478,7.147 1.438,9.936 0.959,2.789 2.311,5.071 4.051,6.844 1.744,1.773 3.851,3.095 6.323,3.966 2.468,0.87 5.215,1.309 8.236,1.309 2.792,0 5.332,-0.382 7.627,-1.134 2.297,-0.757 4.302,-1.862 6.017,-3.313 1.712,-1.453 3.064,-3.196 4.052,-5.233 0.988,-2.032 1.569,-4.301 1.744,-6.798 h -11.42 c -0.292,2.208 -1.177,3.938 -2.657,5.187 -1.484,1.251 -3.299,1.875 -5.449,1.875 -1.22,0 -2.354,-0.203 -3.399,-0.61 -1.049,-0.406 -1.962,-1.091 -2.746,-2.05 -0.785,-0.959 -1.413,-2.237 -1.876,-3.834 -0.464,-1.602 -0.696,-3.563 -0.696,-5.885 0,-4.707 0.842,-8.195 2.525,-10.46 1.687,-2.269 3.634,-3.399 5.842,-3.399 2.208,0 4.098,0.61 5.667,1.83 1.569,1.219 2.468,2.992 2.704,5.317 z" /></g><g
         transform="translate(724.9746,161.5078)"
         id="g314"
         style="fill:#e3e2db"><path
           inkscape:connector-curvature="0"
           id="path316"
           style="fill:#e3e2db;fill-opacity:1;fill-rule:nonzero;stroke:none"
           d="m 0,0 v 47.252 c 0,3.129 2.537,5.666 5.666,5.666 3.129,0 5.665,-2.537 5.665,-5.666 V 0 c 0,-3.129 -2.536,-5.665 -5.665,-5.665 C 2.537,-5.665 0,-3.129 0,0" /></g><g
         transform="translate(786.4287,181.4717)"
         id="g318"
         style="fill:#e3e2db"><path
           inkscape:connector-curvature="0"
           id="path320"
           style="fill:#e3e2db;fill-opacity:1;fill-rule:nonzero;stroke:none"
           d="M 0,0 C -0.058,1.569 -0.335,2.949 -0.827,4.141 -1.323,5.331 -1.976,6.319 -2.789,7.104 -3.605,7.889 -4.533,8.47 -5.578,8.848 -6.627,9.226 -7.7,9.415 -8.806,9.415 -11.07,9.415 -13.032,8.588 -14.69,6.93 -16.345,5.274 -17.29,2.963 -17.522,0 Z m -17.872,-7.147 c 0.175,-3.256 1.12,-5.842 2.836,-7.761 1.712,-1.915 3.966,-2.874 6.755,-2.874 1.858,0 3.499,0.42 4.925,1.261 1.422,0.842 2.339,2.019 2.746,3.532 h 11.68 c -1.338,-4.415 -3.659,-7.818 -6.972,-10.2 -3.314,-2.383 -7.265,-3.574 -11.855,-3.574 -14.298,0 -21.445,7.789 -21.445,23.364 0,3.313 0.464,6.305 1.394,8.98 0.927,2.671 2.28,4.968 4.052,6.887 1.773,1.915 3.937,3.385 6.494,4.401 2.558,1.017 5.492,1.527 8.806,1.527 6.626,0 11.638,-2.123 15.036,-6.367 3.402,-4.24 5.1,-10.634 5.1,-19.176 z" /></g><g
         transform="translate(835.2861,159.8408)"
         id="g322"><path
           inkscape:connector-curvature="0"
           id="path324"
           style="fill:#1963ff;fill-opacity:1;fill-rule:nonzero;stroke:none"
           d="m 0,0 -15.625,46.108 c -1.294,3.818 1.545,7.778 5.575,7.778 h 0.359 c 2.578,0 4.855,-1.677 5.621,-4.139 L 5.076,20.354 c 0.672,-2.161 3.731,-2.158 4.399,0.003 l 9.079,29.379 c 0.762,2.467 3.043,4.15 5.625,4.15 4.03,0 6.869,-3.96 5.576,-7.778 L 14.129,0 C 13.319,-2.39 11.076,-3.998 8.554,-3.998 H 5.576 C 3.053,-3.998 0.81,-2.39 0,0" /></g><g
         transform="translate(887.9873,161.1172)"
         id="g326"><path
           inkscape:connector-curvature="0"
           id="path328"
           style="fill:#1963ff;fill-opacity:1;fill-rule:nonzero;stroke:none"
           d="m 0,0 v 32.341 c 0,2.913 2.361,5.275 5.274,5.275 h 0.782 c 2.913,0 5.274,-2.362 5.274,-5.275 V 0 c 0,-2.913 -2.361,-5.274 -5.274,-5.274 H 5.274 C 2.361,-5.274 0,-2.913 0,0 m 0,48.033 v 0 c 0,2.913 2.361,5.276 5.274,5.276 h 0.782 c 2.913,0 5.274,-2.363 5.274,-5.276 0,-2.913 -2.361,-5.274 -5.274,-5.274 H 5.274 C 2.361,42.759 0,45.12 0,48.033" /></g><g
         transform="translate(920.0674,155.8428)"
         id="g330"><path
           inkscape:connector-curvature="0"
           id="path332"
           style="fill:#1963ff;fill-opacity:1;fill-rule:nonzero;stroke:none"
           d="M 0,0 V 8.717 L 21.88,33.91 H 1.483 v 8.981 h 34.87 V 33.735 L 14.469,9.24 H 36.963 V 0 Z" /></g><g
         transform="translate(531.624,154.8633)"
         id="g334"
         style="fill:#e3e2db"><path
           inkscape:connector-curvature="0"
           id="path336"
           style="fill:#e3e2db;fill-opacity:1;fill-rule:nonzero;stroke:none"
           d="m 0,0 v 21.366 c 0,4.307 0.633,7.923 1.904,10.85 1.269,2.924 3.007,5.271 5.218,7.038 2.096,1.657 4.554,2.87 7.37,3.644 2.816,0.772 5.714,1.16 8.695,1.16 h 0.829 0.828 V 32.299 h -3.809 c -3.204,0 -5.577,-0.775 -7.123,-2.32 -1.547,-1.547 -2.318,-3.975 -2.318,-7.288 V 0 Z" /></g><path
         d="m 620.3145,515.7222 c 31.311,0 56.692,-25.382 56.692,-56.692 0,-31.31 -25.381,-56.692 -56.692,-56.692 -31.31,0 -56.692,25.382 -56.692,56.692 0,31.31 25.382,56.692 56.692,56.692 -40.4,0 -73.151,-32.751 -73.151,-73.151 0,-40.401 32.751,-73.151 73.151,-73.151 40.4,0 73.151,32.75 73.151,73.151 0,40.4 -32.751,73.151 -73.151,73.151"
         style="fill:#e3e2db;fill-opacity:1;fill-rule:nonzero;stroke:none"
         id="path340"
         inkscape:connector-curvature="0" /></g></g></svg>